<svg xmlns="http://www.w3.org/2000/svg" width="860.457" height="825.324" viewBox="0 0 860.457 825.324">
  <g id="big_ben" data-name="big ben" transform="translate(-92.178 -92.178)">
    <g id="Сгруппировать_46" data-name="Сгруппировать 46" transform="translate(513.62 92.178)">
      <path id="Контур_34" data-name="Контур 34" d="M40.28,130.421a8.783,8.783,0,0,1-8.78-8.78V16.28a8.78,8.78,0,0,1,17.56,0V121.641A8.783,8.783,0,0,1,40.28,130.421Z" transform="translate(-31.5 -7.5)" fill="#201f4d"/>
    </g>
    <g id="Сгруппировать_47" data-name="Сгруппировать 47" transform="translate(496.06 197.538)">
      <path id="Контур_35" data-name="Контур 35" d="M74.4,136.421H39.28a8.783,8.783,0,0,1-8.78-8.78V22.28a8.783,8.783,0,0,1,8.78-8.78H74.4a8.783,8.783,0,0,1,8.78,8.78V127.641A8.783,8.783,0,0,1,74.4,136.421Zm-26.34-17.56H65.62V31.06H48.06Z" transform="translate(-30.5 -13.5)" fill="#201f4d"/>
    </g>
    <g id="Сгруппировать_48" data-name="Сгруппировать 48" transform="translate(443.38 302.899)">
      <path id="Контур_36" data-name="Контур 36" d="M176.761,107.3H36.28a8.783,8.783,0,0,1-8.78-8.78V28.28a8.783,8.783,0,0,1,8.78-8.78H176.761a8.783,8.783,0,0,1,8.78,8.78V98.52A8.783,8.783,0,0,1,176.761,107.3ZM45.06,89.74H167.981V37.06H45.06Z" transform="translate(-27.5 -19.5)" fill="#201f4d"/>
    </g>
    <g id="Сгруппировать_49" data-name="Сгруппировать 49" transform="translate(425.82 302.899)">
      <path id="Контур_37" data-name="Контур 37" d="M210.881,37.06H35.28a8.78,8.78,0,0,1,0-17.56h175.6a8.78,8.78,0,0,1,0,17.56Z" transform="translate(-26.5 -19.5)" fill="#201f4d"/>
    </g>
    <g id="Сгруппировать_50" data-name="Сгруппировать 50" transform="translate(425.82 373.139)">
      <path id="Контур_38" data-name="Контур 38" d="M210.881,41.06H35.28a8.78,8.78,0,0,1,0-17.56h175.6a8.78,8.78,0,0,1,0,17.56Z" transform="translate(-26.5 -23.5)" fill="#201f4d"/>
    </g>
    <g id="Сгруппировать_51" data-name="Сгруппировать 51" transform="translate(443.38 373.139)">
      <path id="Контур_39" data-name="Контур 39" d="M176.761,76.18H36.28A8.783,8.783,0,0,1,27.5,67.4V32.28a8.783,8.783,0,0,1,8.78-8.78H176.761a8.783,8.783,0,0,1,8.78,8.78V67.4A8.783,8.783,0,0,1,176.761,76.18ZM45.06,58.62H167.981V41.06H45.06Z" transform="translate(-27.5 -23.5)" fill="#201f4d"/>
    </g>
    <g id="Сгруппировать_52" data-name="Сгруппировать 52" transform="translate(425.82 408.259)">
      <path id="Контур_40" data-name="Контур 40" d="M210.881,95.74H35.28a8.783,8.783,0,0,1-8.78-8.78V34.28a8.783,8.783,0,0,1,8.78-8.78h175.6a8.783,8.783,0,0,1,8.78,8.78V86.96A8.783,8.783,0,0,1,210.881,95.74ZM44.06,78.18H202.1V43.06H44.06Z" transform="translate(-26.5 -25.5)" fill="#201f4d"/>
    </g>
    <g id="Сгруппировать_53" data-name="Сгруппировать 53" transform="translate(390.699 460.94)">
      <path id="Контур_41" data-name="Контур 41" d="M279.121,98.74H33.28a8.783,8.783,0,0,1-8.78-8.78V37.28a8.783,8.783,0,0,1,8.78-8.78H279.121a8.783,8.783,0,0,1,8.78,8.78V89.96A8.783,8.783,0,0,1,279.121,98.74ZM42.06,81.18H270.341V46.06H42.06Z" transform="translate(-24.5 -28.5)" fill="#201f4d"/>
    </g>
    <g id="Сгруппировать_54" data-name="Сгруппировать 54" transform="translate(390.699 513.62)">
      <path id="Контур_42" data-name="Контур 42" d="M279.121,101.74H33.28a8.783,8.783,0,0,1-8.78-8.78V40.28a8.783,8.783,0,0,1,8.78-8.78H279.121a8.783,8.783,0,0,1,8.78,8.78V92.96A8.783,8.783,0,0,1,279.121,101.74ZM42.06,84.18H270.341V49.06H42.06Z" transform="translate(-24.5 -31.5)" fill="#201f4d"/>
    </g>
    <g id="Сгруппировать_55" data-name="Сгруппировать 55" transform="translate(390.225 812.142)">
      <path id="Контур_43" data-name="Контур 43" d="M280.043,153.861a8.783,8.783,0,0,1-8.78-8.78V66.06H42.033v79.02a8.78,8.78,0,1,1-17.56,0V57.28a8.783,8.783,0,0,1,8.78-8.78H280.06a8.783,8.783,0,0,1,8.78,8.78v87.8A8.8,8.8,0,0,1,280.043,153.861Z" transform="translate(-24.473 -48.5)" fill="#201f4d"/>
    </g>
    <g id="Сгруппировать_56" data-name="Сгруппировать 56" transform="translate(390.699 601.42)">
      <path id="Контур_44" data-name="Контур 44" d="M279.121,264.781H33.28A8.783,8.783,0,0,1,24.5,256V45.28a8.78,8.78,0,0,1,17.56,0V247.221H270.341V45.28a8.78,8.78,0,1,1,17.56,0V256A8.783,8.783,0,0,1,279.121,264.781Z" transform="translate(-24.5 -36.5)" fill="#201f4d"/>
    </g>
    <g id="Сгруппировать_57" data-name="Сгруппировать 57" transform="translate(355.579 513.62)">
      <path id="Контур_45" data-name="Контур 45" d="M347.362,49.06H31.28a8.78,8.78,0,1,1,0-17.56H347.362a8.78,8.78,0,0,1,0,17.56Z" transform="translate(-22.5 -31.5)" fill="#201f4d"/>
    </g>
    <g id="Сгруппировать_58" data-name="Сгруппировать 58" transform="translate(355.579 460.94)">
      <path id="Контур_46" data-name="Контур 46" d="M347.362,46.06H31.28a8.78,8.78,0,0,1,0-17.56H347.362a8.78,8.78,0,0,1,0,17.56Z" transform="translate(-22.5 -28.5)" fill="#201f4d"/>
    </g>
    <g id="Сгруппировать_59" data-name="Сгруппировать 59" transform="translate(355.579 566.3)">
      <path id="Контур_47" data-name="Контур 47" d="M347.362,52.06H31.28a8.78,8.78,0,0,1,0-17.56H347.362a8.78,8.78,0,0,1,0,17.56Z" transform="translate(-22.5 -34.5)" fill="#201f4d"/>
    </g>
    <g id="Сгруппировать_60" data-name="Сгруппировать 60" transform="translate(355.579 812.142)">
      <path id="Контур_48" data-name="Контур 48" d="M347.362,66.06H31.28a8.78,8.78,0,1,1,0-17.56H347.362a8.78,8.78,0,0,1,0,17.56Z" transform="translate(-22.5 -48.5)" fill="#201f4d"/>
    </g>
    <g id="Сгруппировать_61" data-name="Сгруппировать 61" transform="translate(425.82 601.42)">
      <path id="Контур_49" data-name="Контур 49" d="M123.08,229.661a96.58,96.58,0,1,1,96.58-96.58A96.683,96.683,0,0,1,123.08,229.661Zm0-175.6a79.02,79.02,0,1,0,79.02,79.02A79.117,79.117,0,0,0,123.08,54.06Z" transform="translate(-26.5 -36.5)" fill="#201f4d"/>
    </g>
    <g id="Сгруппировать_65" data-name="Сгруппировать 65" transform="translate(478.5 338.019)">
      <g id="Сгруппировать_62" data-name="Сгруппировать 62">
        <path id="Контур_50" data-name="Контур 50" d="M38.28,73.636a8.783,8.783,0,0,1-8.78-8.78V30.28a8.78,8.78,0,0,1,17.56,0V64.856A8.783,8.783,0,0,1,38.28,73.636Z" transform="translate(-29.5 -21.5)" fill="#201f4d"/>
      </g>
      <g id="Сгруппировать_63" data-name="Сгруппировать 63" transform="translate(35.12)">
        <path id="Контур_51" data-name="Контур 51" d="M40.28,73.636a8.783,8.783,0,0,1-8.78-8.78V30.28a8.78,8.78,0,0,1,17.56,0V64.856A8.783,8.783,0,0,1,40.28,73.636Z" transform="translate(-31.5 -21.5)" fill="#201f4d"/>
      </g>
      <g id="Сгруппировать_64" data-name="Сгруппировать 64" transform="translate(70.24)">
        <path id="Контур_52" data-name="Контур 52" d="M42.28,73.636a8.783,8.783,0,0,1-8.78-8.78V30.28a8.78,8.78,0,0,1,17.56,0V64.856A8.783,8.783,0,0,1,42.28,73.636Z" transform="translate(-33.5 -21.5)" fill="#201f4d"/>
      </g>
    </g>
    <g id="Сгруппировать_71" data-name="Сгруппировать 71" transform="translate(425.82 513.62)">
      <g id="Сгруппировать_66" data-name="Сгруппировать 66">
        <path id="Контур_53" data-name="Контур 53" d="M35.28,101.74a8.783,8.783,0,0,1-8.78-8.78V40.28a8.78,8.78,0,0,1,17.56,0V92.96A8.783,8.783,0,0,1,35.28,101.74Z" transform="translate(-26.5 -31.5)" fill="#201f4d"/>
      </g>
      <g id="Сгруппировать_67" data-name="Сгруппировать 67" transform="translate(43.9)">
        <path id="Контур_54" data-name="Контур 54" d="M37.78,101.74A8.783,8.783,0,0,1,29,92.96V40.28a8.78,8.78,0,0,1,17.56,0V92.96A8.783,8.783,0,0,1,37.78,101.74Z" transform="translate(-29 -31.5)" fill="#201f4d"/>
      </g>
      <g id="Сгруппировать_68" data-name="Сгруппировать 68" transform="translate(87.8)">
        <path id="Контур_55" data-name="Контур 55" d="M40.28,101.74a8.783,8.783,0,0,1-8.78-8.78V40.28a8.78,8.78,0,0,1,17.56,0V92.96A8.783,8.783,0,0,1,40.28,101.74Z" transform="translate(-31.5 -31.5)" fill="#201f4d"/>
      </g>
      <g id="Сгруппировать_69" data-name="Сгруппировать 69" transform="translate(131.701)">
        <path id="Контур_56" data-name="Контур 56" d="M42.78,101.74A8.783,8.783,0,0,1,34,92.96V40.28a8.78,8.78,0,0,1,17.56,0V92.96A8.783,8.783,0,0,1,42.78,101.74Z" transform="translate(-34 -31.5)" fill="#201f4d"/>
      </g>
      <g id="Сгруппировать_70" data-name="Сгруппировать 70" transform="translate(175.601)">
        <path id="Контур_57" data-name="Контур 57" d="M45.28,101.74a8.783,8.783,0,0,1-8.78-8.78V40.28a8.78,8.78,0,0,1,17.56,0V92.96A8.783,8.783,0,0,1,45.28,101.74Z" transform="translate(-36.5 -31.5)" fill="#201f4d"/>
      </g>
    </g>
    <g id="Сгруппировать_77" data-name="Сгруппировать 77" transform="translate(425.82 812.142)">
      <g id="Сгруппировать_72" data-name="Сгруппировать 72">
        <path id="Контур_58" data-name="Контур 58" d="M35.28,153.861a8.783,8.783,0,0,1-8.78-8.78V57.28a8.78,8.78,0,0,1,17.56,0v87.8A8.783,8.783,0,0,1,35.28,153.861Z" transform="translate(-26.5 -48.5)" fill="#201f4d"/>
      </g>
      <g id="Сгруппировать_73" data-name="Сгруппировать 73" transform="translate(43.9)">
        <path id="Контур_59" data-name="Контур 59" d="M37.78,153.861A8.783,8.783,0,0,1,29,145.08V57.28a8.78,8.78,0,0,1,17.56,0v87.8A8.783,8.783,0,0,1,37.78,153.861Z" transform="translate(-29 -48.5)" fill="#201f4d"/>
      </g>
      <g id="Сгруппировать_74" data-name="Сгруппировать 74" transform="translate(87.8)">
        <path id="Контур_60" data-name="Контур 60" d="M40.28,153.861a8.783,8.783,0,0,1-8.78-8.78V57.28a8.78,8.78,0,0,1,17.56,0v87.8A8.783,8.783,0,0,1,40.28,153.861Z" transform="translate(-31.5 -48.5)" fill="#201f4d"/>
      </g>
      <g id="Сгруппировать_75" data-name="Сгруппировать 75" transform="translate(131.701)">
        <path id="Контур_61" data-name="Контур 61" d="M42.78,153.861A8.783,8.783,0,0,1,34,145.08V57.28a8.78,8.78,0,0,1,17.56,0v87.8A8.783,8.783,0,0,1,42.78,153.861Z" transform="translate(-34 -48.5)" fill="#201f4d"/>
      </g>
      <g id="Сгруппировать_76" data-name="Сгруппировать 76" transform="translate(175.601)">
        <path id="Контур_62" data-name="Контур 62" d="M45.28,153.861a8.783,8.783,0,0,1-8.78-8.78V57.28a8.78,8.78,0,0,1,17.56,0v87.8A8.783,8.783,0,0,1,45.28,153.861Z" transform="translate(-36.5 -48.5)" fill="#201f4d"/>
      </g>
    </g>
    <g id="Сгруппировать_78" data-name="Сгруппировать 78" transform="translate(583.86 232.659)">
      <path id="Контур_63" data-name="Контур 63" d="M132.08,33.06H44.28a8.78,8.78,0,1,1,0-17.56h87.8a8.78,8.78,0,0,1,0,17.56Z" transform="translate(-35.5 -15.5)" fill="#201f4d"/>
    </g>
    <g id="Сгруппировать_79" data-name="Сгруппировать 79" transform="translate(162.418 654.101)">
      <path id="Контур_64" data-name="Контур 64" d="M108.08,57.06H20.28a8.78,8.78,0,1,1,0-17.56h87.8a8.78,8.78,0,1,1,0,17.56Z" transform="translate(-11.5 -39.5)" fill="#201f4d"/>
    </g>
    <g id="Сгруппировать_81" data-name="Сгруппировать 81" transform="translate(478.495 654.114)">
      <g id="Сгруппировать_80" data-name="Сгруппировать 80">
        <path id="Контур_65" data-name="Контур 65" d="M73.4,109.728a8.819,8.819,0,0,1-6.216-2.564l-35.12-35.12A8.779,8.779,0,0,1,44.483,59.629L73.4,88.533l46.464-46.464a8.779,8.779,0,1,1,12.415,12.415L79.6,107.164A8.749,8.749,0,0,1,73.4,109.728Z" transform="translate(-29.5 -39.501)" fill="#201f4d"/>
      </g>
    </g>
    <g id="Сгруппировать_82" data-name="Сгруппировать 82" transform="translate(92.178 320.459)">
      <path id="Контур_66" data-name="Контур 66" d="M279.681,108.3H227a8.783,8.783,0,0,1-8.78-8.78V81.96a43.9,43.9,0,1,0-87.8,0V99.52a8.78,8.78,0,0,1-17.56,0V90.74a17.56,17.56,0,1,0-35.12,0v8.78a8.783,8.783,0,0,1-8.78,8.78H16.28a8.78,8.78,0,1,1,0-17.56h43.9a35.1,35.1,0,0,1,55.859-28.324A61.467,61.467,0,0,1,235.781,81.96v8.78h43.9a8.78,8.78,0,1,1,0,17.56Z" transform="translate(-7.5 -20.5)" fill="#201f4d"/>
    </g>
    <g id="Сгруппировать_83" data-name="Сгруппировать 83" transform="translate(803.999 618.981)">
      <path id="Контур_67" data-name="Контур 67" d="M122.345,90.18a8.783,8.783,0,0,1-8.78-8.78A26.34,26.34,0,0,0,64.415,68.23a8.777,8.777,0,1,1-15.189-8.8A43.906,43.906,0,0,1,131.143,81.4,8.81,8.81,0,0,1,122.345,90.18Z" transform="translate(-48.036 -37.5)" fill="#201f4d"/>
    </g>
    <g id="Сгруппировать_84" data-name="Сгруппировать 84" transform="translate(869.528 618.981)">
      <path id="Контур_68" data-name="Контур 68" d="M60.548,90.18a8.783,8.783,0,0,1-8.78-8.78,43.906,43.906,0,0,1,81.918-21.968,8.777,8.777,0,0,1-15.189,8.8A26.351,26.351,0,0,0,69.328,81.4,8.783,8.783,0,0,1,60.548,90.18Z" transform="translate(-51.768 -37.5)" fill="#201f4d"/>
    </g>
    <g id="Сгруппировать_85" data-name="Сгруппировать 85" transform="translate(851.968 654.101)">
      <path id="Контур_69" data-name="Контур 69" d="M94.668,57.06H59.548a8.78,8.78,0,1,1,0-17.56h35.12a8.78,8.78,0,0,1,0,17.56Z" transform="translate(-50.768 -39.5)" fill="#201f4d"/>
    </g>
  </g>
</svg>
