<svg xmlns="http://www.w3.org/2000/svg" width="1652.712" height="782.456" viewBox="0 0 1652.712 782.456">
  <g id="Сгруппировать_94" data-name="Сгруппировать 94" transform="translate(-137.714 -2077.826)" opacity="0.06">
    <g id="iconfinder_Game_Controller_2228674" transform="translate(137.714 2077.826)">
      <path id="Контур_106" data-name="Контур 106" d="M1273.1,82.359c173.018,0,315.048,142.03,315.048,315.048S1446.123,712.456,1273.1,712.456c-123.953,0-235-72.306-286.642-185.93a65.243,65.243,0,0,0-59.394-38.735H725.644a65.243,65.243,0,0,0-59.394,38.735C614.6,640.149,503.561,712.456,379.607,712.456,206.589,709.873,67.141,567.843,67.141,394.825S209.171,79.777,382.19,79.777H1273.1m0-61.977h-893.5C170.436,17.8,0,188.236,0,397.407S170.436,777.015,379.607,777.015c152.359,0,286.642-90.383,346.036-222.083H927.068c59.394,131.7,191.095,222.083,346.037,222.083,209.171,0,379.607-170.436,379.607-379.607C1650.13,185.654,1482.276,17.8,1273.1,17.8Z" transform="translate(0 5.441)" fill="#434263"/>
      <circle id="Эллипс_12" data-name="Эллипс 12" cx="178.183" cy="178.183" r="178.183" transform="translate(201.424 222.083)" fill="none"/>
      <path id="Контур_107" data-name="Контур 107" d="M285.124,22.9C150.842,22.9,39.8,133.942,39.8,268.224S150.842,513.549,285.124,513.549,530.449,402.507,530.449,268.224,419.407,22.9,285.124,22.9ZM171.5,314.707c-25.824,0-43.9-20.659-43.9-43.9s20.659-43.9,43.9-43.9,43.9,20.659,43.9,43.9S197.324,314.707,171.5,314.707ZM285.124,425.749c-25.824,0-43.9-20.659-43.9-43.9s20.659-43.9,43.9-43.9c25.824,0,43.9,20.659,43.9,43.9S308.366,425.749,285.124,425.749Zm0-224.666c-25.824,0-43.9-20.659-43.9-43.9s20.659-43.9,43.9-43.9c25.824,0,43.9,20.659,43.9,43.9S308.366,201.083,285.124,201.083ZM396.166,314.707c-25.824,0-43.9-20.659-43.9-43.9s20.659-43.9,43.9-43.9,43.9,20.659,43.9,43.9S419.407,314.707,396.166,314.707Z" transform="translate(987.98 132.042)" fill="#434263"/>
      <path id="Контур_108" data-name="Контур 108" d="M129.989,88.394V29H75.759V88.394H11.2v56.812H75.759v61.977h54.23V145.206h61.977V88.394Z" transform="translate(278.025 283.466)" fill="#434263"/>
      <path id="Контур_109" data-name="Контур 109" d="M37.785,122.986h0c-7.747-7.747-7.747-23.241,0-30.988L94.6,35.185c7.747-7.747,23.241-7.747,30.988,0h0c7.747,7.747,7.747,23.241,0,30.988L68.774,122.986A19.368,19.368,0,0,1,37.785,122.986Z" transform="translate(793.736 292.775)" fill="#434263"/>
      <path id="Контур_110" data-name="Контур 110" d="M32.685,122.986h0c-7.747-7.747-7.747-23.241,0-30.988L89.5,35.185c7.747-7.747,23.241-7.747,30.988,0h0c7.747,7.747,7.747,23.241,0,30.988L63.674,122.986A19.368,19.368,0,0,1,32.685,122.986Z" transform="translate(667.135 292.775)" fill="#434263"/>
      <path id="Контур_111" data-name="Контур 111" d="M257.424,16.9H56c-25.824,0-43.9,20.659-43.9,43.9H301.325C303.907,37.559,283.248,16.9,257.424,16.9Z" transform="translate(300.366 -16.9)" fill="#434263"/>
      <path id="Контур_112" data-name="Контур 112" d="M285.924,16.9H84.5c-25.824,0-43.9,20.659-43.9,43.9H329.825C332.407,37.559,311.748,16.9,285.924,16.9Z" transform="translate(1007.839 -16.9)" fill="#434263"/>
    </g>
    <g id="Эллипс_13" data-name="Эллипс 13" transform="translate(398.852 2256.054)" fill="none" stroke="#201f4d" stroke-width="1">
      <circle cx="213" cy="213" r="213" stroke="none"/>
      <circle cx="213" cy="213" r="212.5" fill="none"/>
    </g>
  </g>
</svg>
