<svg xmlns="http://www.w3.org/2000/svg" width="732.445" height="346.767" viewBox="0 0 732.445 346.767">
  <g id="Сгруппировать_91" data-name="Сгруппировать 91" transform="translate(-227.714 -2065)">
    <g id="iconfinder_Game_Controller_2228674" transform="translate(227.714 2065)">
      <path id="Контур_106" data-name="Контур 106" d="M564.212,46.411c76.678,0,139.622,62.944,139.622,139.622S640.889,325.656,564.212,325.656c-54.933,0-104.145-32.044-127.033-82.4a28.914,28.914,0,0,0-26.322-17.167H321.589a28.914,28.914,0,0,0-26.322,17.167c-22.889,50.356-72.1,82.4-127.033,82.4C91.556,324.511,29.756,261.567,29.756,184.889S92.7,45.267,169.378,45.267H564.212m0-27.467H168.233C75.533,17.8,0,93.333,0,186.033S75.533,354.267,168.233,354.267c67.522,0,127.033-40.056,153.356-98.422h89.267c26.322,58.367,84.689,98.422,153.356,98.422,92.7,0,168.233-75.533,168.233-168.233C731.3,92.189,656.912,17.8,564.212,17.8Z" transform="translate(0 -7.5)" fill="#434263"/>
      <circle id="Эллипс_12" data-name="Эллипс 12" cx="78.967" cy="78.967" r="78.967" transform="translate(89.267 98.422)" fill="none"/>
      <path id="Контур_107" data-name="Контур 107" d="M148.522,22.9C89.011,22.9,39.8,72.111,39.8,131.622S89.011,240.345,148.522,240.345s108.722-49.211,108.722-108.722S208.034,22.9,148.522,22.9ZM98.167,152.222a19.289,19.289,0,0,1-19.456-19.456c0-10.3,9.156-19.456,19.456-19.456s19.456,9.156,19.456,19.456A19.289,19.289,0,0,1,98.167,152.222Zm50.356,49.211a19.289,19.289,0,0,1-19.456-19.456c0-10.3,9.156-19.456,19.456-19.456a19.289,19.289,0,0,1,19.456,19.456C167.978,192.278,158.822,201.433,148.522,201.433Zm0-99.567a19.289,19.289,0,0,1-19.456-19.456c0-10.3,9.156-19.456,19.456-19.456a19.289,19.289,0,0,1,19.456,19.456C167.978,92.711,158.822,101.867,148.522,101.867Zm49.211,50.356a19.289,19.289,0,0,1-19.456-19.456c0-10.3,9.156-19.456,19.456-19.456s19.456,9.156,19.456,19.456S208.034,152.222,197.733,152.222Z" transform="translate(415.689 45.767)" fill="#434263"/>
      <path id="Контур_108" data-name="Контур 108" d="M63.845,55.322V29H39.811V55.322H11.2V80.5H39.811v27.467H63.845V80.5H91.311V55.322Z" transform="translate(116.978 109.478)" fill="#434263"/>
      <path id="Контур_109" data-name="Контур 109" d="M34.55,70.861h0c-3.433-3.433-3.433-10.3,0-13.733L59.728,31.95c3.433-3.433,10.3-3.433,13.733,0h0c3.433,3.433,3.433,10.3,0,13.733L48.283,70.861A8.583,8.583,0,0,1,34.55,70.861Z" transform="translate(333.961 113.395)" fill="#434263"/>
      <path id="Контур_110" data-name="Контур 110" d="M29.45,70.861h0c-3.433-3.433-3.433-10.3,0-13.733L54.628,31.95c3.433-3.433,10.3-3.433,13.733,0h0c3.433,3.433,3.433,10.3,0,13.733L43.183,70.861A8.583,8.583,0,0,1,29.45,70.861Z" transform="translate(280.695 113.395)" fill="#434263"/>
      <path id="Контур_111" data-name="Контур 111" d="M120.822,16.9H31.556A19.289,19.289,0,0,0,12.1,36.356H140.278C141.422,26.056,132.267,16.9,120.822,16.9Z" transform="translate(126.378 -16.9)" fill="#434263"/>
      <path id="Контур_112" data-name="Контур 112" d="M149.322,16.9H60.056A19.289,19.289,0,0,0,40.6,36.356H168.778C169.922,26.056,160.767,16.9,149.322,16.9Z" transform="translate(424.045 -16.9)" fill="#434263"/>
    </g>
    <g id="Эллипс_13" data-name="Эллипс 13" transform="translate(303.559 2149.671)" fill="none" stroke="#201f4d" stroke-width="1">
      <circle cx="94.397" cy="94.397" r="94.397" stroke="none"/>
      <circle cx="94.397" cy="94.397" r="93.897" fill="none"/>
    </g>
  </g>
</svg>
