<svg xmlns="http://www.w3.org/2000/svg" width="747.541" height="749.364" viewBox="0 0 747.541 749.364">
  <g id="iconfinder_graph_7479651" transform="translate(-41.25 -59.365)">
    <path id="Контур_113" data-name="Контур 113" d="M639.559,808.226l-4.886-2.443c-3.257-3.257-4.072-5.7-4.072-16.286l-.814-11.4c0-1.629-4.072-1.629-35.829-1.629-32.572,0-36.644,0-36.644,1.629l-.814,9.772c0,8.957,0,9.772-1.629,12.215-2.443,3.257-6.514,5.7-10.586,5.7s-8.143-2.443-10.586-5.7c-1.629-2.443-1.629-3.257-1.629-12.215l-.814-9.772c0-1.629-4.071-1.629-35.015-1.629-31.758,0-35.829,0-35.829,1.629l-.814,10.586c0,8.957,0,9.772-1.629,12.215-2.443,3.257-6.514,5.7-10.586,5.7s-8.143-2.443-10.586-5.7c-1.629-2.443-1.629-3.257-1.629-12.215l-.814-10.586c0-1.629-4.072-1.629-35.829-1.629-32.572,0-36.644,0-36.644,1.629l-.814,9.772c0,8.143,0,9.772-1.629,12.215l-4.886,4.071c-4.886,3.257-12.215,1.629-16.286-4.071-1.629-2.443-1.629-4.072-1.629-12.215l-.814-9.772c0-1.629-4.072-1.629-35.829-1.629s-35.829,0-35.829,1.629l-.814,11.4c0,9.772,0,10.586-1.629,13.029-5.7,7.329-15.472,7.329-21.172,0-1.629-2.443-1.629-3.257-1.629-13.029l-.814-11.4c0-1.629-4.072-1.629-35.829-1.629s-35.829,0-35.829,1.629l-.814,10.586c0,8.957,0,10.586-1.629,13.029-3.257,5.7-11.4,7.329-17.1,4.072-4.886-3.257-5.7-5.7-5.7-17.1l-.814-10.586c0-1.629-3.257-1.629-27.686-1.629-29.315,0-30.129,0-35.015-4.886-5.7-4.886-5.7-4.886-5.7-35.015l-.814-28.5-10.586-.814c-8.143,0-9.772,0-12.215-1.629-8.143-5.7-8.143-15.472,0-21.172,2.443-1.629,4.072-1.629,12.215-1.629l10.586-.814c1.629-1.629,1.629-70.844,0-72.473l-11.4-.814c-8.957,0-10.586,0-13.029-1.629-7.329-4.886-7.329-16.286,0-21.172,2.443-1.629,4.072-1.629,13.029-1.629l11.4-.814c1.629-1.629,1.629-69.216,0-70.844L60.59,511.82c-8.957,0-10.586,0-13.029-1.629-7.329-4.886-7.329-16.286,0-21.172,2.443-1.629,4.072-1.629,13.029-1.629l10.586-.814c1.629-1.629,1.629-69.216,0-70.844l-10.586-.814c-10.586,0-13.029-.814-16.286-5.7-2.443-3.257-2.443-9.772,0-13.029,3.257-4.886,5.7-5.7,16.286-5.7l10.586-.814c1.629-1.629,1.629-70.844,0-72.473l-9.772-.814c-9.772,0-12.215-.814-15.472-5.7-2.443-3.257-2.443-9.772,0-13.029,3.257-4.886,5.7-5.7,15.472-5.7l9.772-.814c1.629-1.629,1.629-70.03,0-71.659l-9.772-.814c-8.957,0-11.4-.814-14.657-5.7-2.443-3.257-2.443-9.772,0-13.029,3.257-4.886,5.7-5.7,14.657-5.7l9.772-.814.814-61.073c0-58.63,0-60.258,1.629-63.516,2.443-4.072,6.514-8.143,11.4-8.957,8.143-2.443,17.915,4.072,19.543,13.029l.814,337.121v333.05h67.587V711.324l-17.1-.814-17.915-.814-.814-166.118V379.088l4.886-5.7c7.329-6.514,22.8-20.358,33.386-27.686A368.879,368.879,0,0,1,431.1,274.044a363.179,363.179,0,0,1,163.675,58.63c2.443.814,2.443.814,5.7-1.629,5.7-5.7,9.772-7.329,16.286-5.7,8.143,2.443,14.657,12.215,12.215,19.543l-2.443,5.7-1.629,3.257,4.886,4.886a363.18,363.18,0,0,1,128.66,267.906L756,708.881c-.814,1.629-1.629,1.629-58.63,1.629l-57.815.814v31.758h68.4l69.216.814,3.257,1.629c10.586,6.514,11.4,21.172.814,27.686l-3.257,3.257H716.917l-61.073.814L655.03,789.5c0,9.772,0,10.586-1.629,13.029C649.33,807.412,644.444,809.854,639.559,808.226ZM304.88,726.8V711.324H249.508l-.814,14.657v16.286l28.5.814H304.88Zm130.288,1.629-.814-16.286V710.51H406.668l-27.686.814-.814,14.657v16.286l28.5.814h28.5ZM565.457,726.8V711.324l-28.5-.814-29.315.814v30.943l28.5.814h29.315Zm74.916-406.337c-8.143-4.072-11.4-14.657-7.329-21.986,5.7-10.586,18.729-12.215,26.872-3.257,2.443,1.629,4.886,8.143,4.886,10.586,0,5.7-4.886,13.029-10.586,15.472C650.145,322.9,644.444,322.087,640.373,320.459Zm39.086-35.015c-4.072-1.629-8.957-7.329-10.586-11.4-.814-4.072-.814-5.7.814-9.772.814-3.257,6.514-9.772,34.2-37.458,22.8-21.986,35.015-34.2,37.458-35.015,5.7-3.257,13.843-1.629,18.729,3.257,4.071,4.886,4.886,12.215,2.443,18.729l-35.829,36.644c-28.5,28.5-34.2,34.2-36.644,35.015Z" transform="translate(0 0)" fill="#434263" opacity="0.28"/>
    <path id="Контур_114" data-name="Контур 114" d="M639.559,808.226l-4.886-2.443c-3.257-3.257-4.072-5.7-4.072-16.286l-.814-11.4c0-1.629-4.072-1.629-35.829-1.629-32.572,0-36.644,0-36.644,1.629l-.814,9.772c0,8.957,0,9.772-1.629,12.215-2.443,3.257-6.514,5.7-10.586,5.7s-8.143-2.443-10.586-5.7c-1.629-2.443-1.629-3.257-1.629-12.215l-.814-9.772c0-1.629-4.071-1.629-35.015-1.629-31.758,0-35.829,0-35.829,1.629l-.814,10.586c0,8.957,0,9.772-1.629,12.215-2.443,3.257-6.514,5.7-10.586,5.7s-8.143-2.443-10.586-5.7c-1.629-2.443-1.629-3.257-1.629-12.215l-.814-10.586c0-1.629-4.072-1.629-35.829-1.629-32.572,0-36.644,0-36.644,1.629l-.814,9.772c0,8.143,0,9.772-1.629,12.215l-4.886,4.071c-4.886,3.257-12.215,1.629-16.286-4.071-1.629-2.443-1.629-4.072-1.629-12.215l-.814-9.772c0-1.629-4.072-1.629-35.829-1.629s-35.829,0-35.829,1.629l-.814,11.4c0,9.772,0,10.586-1.629,13.029-5.7,7.329-15.472,7.329-21.172,0-1.629-2.443-1.629-3.257-1.629-13.029l-.814-11.4c0-1.629-4.072-1.629-35.829-1.629s-35.829,0-35.829,1.629l-.814,10.586c0,8.957,0,10.586-1.629,13.029-3.257,5.7-11.4,7.329-17.1,4.072-4.886-3.257-5.7-5.7-5.7-17.1l-.814-10.586c0-1.629-3.257-1.629-27.686-1.629-29.315,0-30.129,0-35.015-4.886-5.7-4.886-5.7-4.886-5.7-35.015l-.814-28.5-10.586-.814c-8.143,0-9.772,0-12.215-1.629-8.143-5.7-8.143-15.472,0-21.172,2.443-1.629,4.072-1.629,12.215-1.629l10.586-.814c1.629-1.629,1.629-70.844,0-72.473l-11.4-.814c-8.957,0-10.586,0-13.029-1.629-7.329-4.886-7.329-16.286,0-21.172,2.443-1.629,4.072-1.629,13.029-1.629l11.4-.814c1.629-1.629,1.629-69.216,0-70.844L60.59,511.82c-8.957,0-10.586,0-13.029-1.629-7.329-4.886-7.329-16.286,0-21.172,2.443-1.629,4.072-1.629,13.029-1.629l10.586-.814c1.629-1.629,1.629-69.216,0-70.844l-10.586-.814c-10.586,0-13.029-.814-16.286-5.7-2.443-3.257-2.443-9.772,0-13.029,3.257-4.886,5.7-5.7,16.286-5.7l10.586-.814c1.629-1.629,1.629-70.844,0-72.473l-9.772-.814c-9.772,0-12.215-.814-15.472-5.7-2.443-3.257-2.443-9.772,0-13.029,3.257-4.886,5.7-5.7,15.472-5.7l9.772-.814c1.629-1.629,1.629-70.03,0-71.659l-9.772-.814c-8.957,0-11.4-.814-14.657-5.7-2.443-3.257-2.443-9.772,0-13.029,3.257-4.886,5.7-5.7,14.657-5.7l9.772-.814.814-61.073c0-58.63,0-60.258,1.629-63.516,2.443-4.072,6.514-8.143,11.4-8.957,8.143-2.443,17.915,4.072,19.543,13.029l.814,337.121v333.05h33.386l34.2-.814v-85.5l.814-92.016c0-4.886,2.443-8.143,5.7-10.586l30.129-.814h27.686l3.257,1.629c4.886,2.443,7.329,6.514,7.329,11.4l.814,91.2.814,86.316H304.88V690.152l.814-58.63c0-5.7,2.443-8.957,6.514-11.4,2.443-1.629,4.072-1.629,29.315-1.629l29.315.814c4.072,2.443,6.514,5.7,6.514,10.586l.814,59.444V743.9h56.187v-102.6l.814-106.674c0-6.514,2.443-9.772,6.514-12.214,2.443-1.629,4.071-1.629,29.315-1.629l29.315.814a16.209,16.209,0,0,1,6.514,9.772l.814,107.488V743.082h57.816V591.621l.814-156.346c0-5.7,2.443-8.957,6.514-11.4,2.443-1.629,4.072-1.629,29.315-1.629l29.315.814c4.072,2.443,6.514,5.7,6.514,10.586l.814,157.16.814,152.275h68.4l69.216.814,3.257,1.629c10.586,6.514,11.4,21.172.814,27.686l-3.257,3.257H716.917l-61.073.814L655.03,789.5c0,9.772,0,10.586-1.629,13.029C649.33,807.412,644.444,809.854,639.559,808.226ZM203.907,497.977c-7.329-3.257-59.444-33.386-61.887-35.829l-4.072-7.329c-1.629-4.072-1.629-4.072,0-7.329,3.257-8.143,8.143-12.215,15.472-12.215,4.886,0,4.072-.814,30.943,15.472l22.8,12.215c.814,0,21.986-20.358,46.415-45.6,31.758-31.758,47.23-45.6,48.858-46.415a20.222,20.222,0,0,1,13.843,0l31.758,29.315,28.5,28.5,23.615-22.8c25.243-25.243,26.058-26.058,33.386-25.243,7.329,1.629,13.843,8.957,13.843,16.286,0,6.514-2.443,8.957-32.572,39.9l-30.944,30.129c-4.072,1.629-10.586,1.629-14.657-.814-1.629-1.629-16.286-14.657-30.943-30.129l-28.5-27.686c-.814,0-21.172,19.543-44.787,43.972-46.415,46.415-48.044,47.23-54.558,47.23ZM545.1,366.874,497.87,354.659l-7.329,5.7c-8.957,8.957-15.472,11.4-23.615,8.143-6.514-3.257-10.586-11.4-8.143-18.729a126.215,126.215,0,0,1,26.058-27.686,15.5,15.5,0,0,1,14.657-.814q42.329,13.285,85.5,23.615c1.629,0,4.071-1.629,9.772-8.143,11.4-11.4,14.657-13.029,21.986-11.4,8.143,2.443,14.657,12.215,12.215,19.543-.814,4.072-4.071,8.957-5.7,8.957l-12.215,11.4c-11.4,12.215-13.843,13.843-19.543,13.843Zm95.273-46.415c-8.143-4.072-11.4-14.657-7.329-21.986,5.7-10.586,18.729-12.215,26.872-3.257,2.443,1.629,4.886,8.143,4.886,10.586,0,5.7-4.886,13.029-10.586,15.472C650.145,322.9,644.444,322.087,640.373,320.459Zm39.086-35.015c-4.072-1.629-8.957-7.329-10.586-11.4-.814-4.072-.814-5.7.814-9.772.814-3.257,6.514-9.772,34.2-37.458,22.8-21.986,35.015-34.2,37.458-35.015,5.7-3.257,13.843-1.629,18.729,3.257,4.071,4.886,4.886,12.215,2.443,18.729l-35.829,36.644c-28.5,28.5-34.2,34.2-36.644,35.015Z" transform="translate(0 0)" fill="#181748"/>
  </g>
</svg>
