<svg xmlns="http://www.w3.org/2000/svg" width="1699.057" height="860.376" viewBox="0 0 1699.057 860.376">
  <g id="iconfinder_graph_7479651" transform="translate(-283.186 -343.187)" opacity="0.05">
    <path id="Контур_114" data-name="Контур 114" d="M425.548,1199.035c-20.373-9.055-160.72-174.3-140.347-174.3,13.582,0,11.318-2.264,86.019,43.01L434.6,1101.7c2.264,0,61.119-56.592,129.029-126.765C651.914,886.65,694.924,848.167,699.451,845.9c11.318-4.527,27.164-4.527,38.482,0L826.216,927.4l79.228,79.228,65.646-63.383c70.174-70.174,72.437-72.437,92.81-70.174,20.373,4.527,38.482,24.9,38.482,45.273,0,18.109-6.791,24.9-90.546,110.919l-86.019,83.756c-11.318,4.527-29.427,4.527-40.746-2.264-4.527-4.527-45.273-40.746-86.019-83.756l-79.228-76.965c-2.264,0-58.855,54.328-124.5,122.238C466.294,1201.3,461.767,1203.563,443.657,1203.563Zm948.475-364.45L1242.731,800.63l-20.373,15.846c-24.9,24.9-43.01,31.691-65.646,22.637-18.109-9.055-29.428-31.691-22.637-52.064a350.865,350.865,0,0,1,72.438-76.965c11.318-6.791,27.164-9.054,40.746-2.263q117.67,36.93,237.685,65.646c4.527,0,11.318-4.527,27.164-22.637,31.691-31.691,40.746-36.219,61.119-31.691,22.637,6.791,40.746,33.955,33.955,54.328-2.264,11.318-11.318,24.9-15.846,24.9l-33.955,31.691c-31.691,33.955-38.482,38.482-54.328,38.482Zm264.849-129.029c-22.637-11.318-31.692-40.746-20.373-61.119,15.846-29.428,52.064-33.955,74.7-9.055,6.791,4.527,13.582,22.636,13.582,29.427,0,15.846-13.582,36.219-29.428,43.01C1666.036,712.347,1650.191,710.084,1638.872,705.556Zm108.656-97.338c-11.318-4.527-24.9-20.373-29.427-31.691-2.264-11.318-2.264-15.846,2.263-27.164,2.264-9.055,18.109-27.164,95.074-104.129,63.383-61.119,97.338-95.074,104.129-97.338,15.846-9.055,38.482-4.527,52.065,9.055,11.318,13.582,13.582,33.955,6.791,52.064l-99.6,101.865c-79.228,79.228-95.074,95.074-101.865,97.337Z" transform="translate(0 0)" fill="#181748"/>
  </g>
</svg>
