<svg xmlns="http://www.w3.org/2000/svg" width="241.247" height="172.106" viewBox="0 0 241.247 172.106">
  <g id="Layer_2" transform="translate(-3.4 -11.7)">
    <g id="Group_86" data-name="Group 86" transform="translate(3.4 11.7)">
      <path id="Path_74" data-name="Path 74" d="M199.848,11.7,92.229,38.6H29.024V51.417H3.4v59.789H29.024v12.812H44.4l11.531,59.789H87.1L75.573,124.017H91.8l107.192,26.9V111.205h14.093V51.417H198.994V11.7ZM29.024,102.664H11.941V59.958H29.024Zm48.258,72.6H63.189l-9.822-51.247H67.459Zm11.531-59.789H37.138V47.146H88.385v68.33ZM191.307,51.417h0v59.789h0v28.613L97.354,116.33V46.292L191.307,22.8Zm13.666,8.541v42.706h-5.552V59.958Z" transform="translate(-3.4 -11.7)" fill="#fff"/>
      <rect id="Rectangle_12" data-name="Rectangle 12" width="20.499" height="8.541" transform="translate(219.937 65.34)" fill="#fff"/>
      <rect id="Rectangle_13" data-name="Rectangle 13" width="21.353" height="8.541" transform="translate(218.268 40.061) rotate(-24.13)" fill="#fff"/>
      <rect id="Rectangle_14" data-name="Rectangle 14" width="8.541" height="21.353" transform="translate(217.888 99.251) rotate(-65.87)" fill="#fff"/>
    </g>
  </g>
</svg>
