<svg xmlns="http://www.w3.org/2000/svg" width="184.612" height="184.612" viewBox="0 0 184.612 184.612">
  <g id="Multiplayer-Gamer-Computer-Player-Team" transform="translate(-2 -2)">
    <rect id="Rectangle_15" data-name="Rectangle 15" width="6" height="6" transform="translate(35.947 47.946)" fill="#fff"/>
    <rect id="Rectangle_16" data-name="Rectangle 16" width="7" height="6" transform="translate(53.947 47.946)" fill="#fff"/>
    <rect id="Rectangle_17" data-name="Rectangle 17" width="6" height="6" transform="translate(127.947 47.946)" fill="#fff"/>
    <rect id="Rectangle_18" data-name="Rectangle 18" width="6" height="6" transform="translate(146.947 47.946)" fill="#fff"/>
    <path id="Path_95" data-name="Path 95" d="M177.381,162a9.258,9.258,0,0,0,9.231-9.231V109.69a9.212,9.212,0,0,0-6.861-8.892,21.587,21.587,0,0,0-12.061-14.154L152.766,80V75.6a24.923,24.923,0,0,0,6.892-5.908h8.492a6.172,6.172,0,0,0,6.154-6.154V56.214a12.1,12.1,0,0,0,0-16.123V35.845a33.845,33.845,0,1,0-67.691,0v4.246a12.249,12.249,0,0,0,9.231,20.369c.277,0,.523-.062.8-.062a24.593,24.593,0,0,0,11.507,15.2V80l-14.923,6.646A21.587,21.587,0,0,0,101.167,100.8a9.212,9.212,0,0,0-6.861,8.892,9.212,9.212,0,0,0-6.861-8.892A21.587,21.587,0,0,0,75.383,86.644L60.46,80V75.6a24.922,24.922,0,0,0,6.892-5.908h8.492A6.172,6.172,0,0,0,82,63.537V56.214a12.1,12.1,0,0,0,0-16.123V35.845a33.845,33.845,0,0,0-67.691,0v4.246A12.249,12.249,0,0,0,23.538,60.46c.277,0,.523-.062.8-.062A24.593,24.593,0,0,0,35.845,75.6V80L20.923,86.644A21.587,21.587,0,0,0,8.861,100.8,9.212,9.212,0,0,0,2,109.69v43.076A9.258,9.258,0,0,0,11.231,162H35.845v6.154H26.615a3.077,3.077,0,0,0-3.077,3.077v9.231H2v6.154H186.612v-6.154H165.074v-9.231A3.077,3.077,0,0,0,162,168.151h-9.231V162Zm-9.231-98.46h-4.892a21.972,21.972,0,0,0,1.015-3.138c.277,0,.523.062.8.062a12.587,12.587,0,0,0,3.077-.431Zm3.077-15.384a6.172,6.172,0,0,1-6.154,6.154V42A6.172,6.172,0,0,1,171.227,48.153Zm-55.384,6.154a6.154,6.154,0,0,1,0-12.307Zm0-18.461a12.587,12.587,0,0,0-3.077.431v-.431a27.692,27.692,0,0,1,55.384,0v.431a12.588,12.588,0,0,0-3.077-.431c-.277,0-.523.062-.8.062a24.572,24.572,0,0,0-47.63,0C116.367,35.907,116.121,35.845,115.844,35.845Zm42.8,3.077H157.1l-5.231-5.261a3.132,3.132,0,0,0-3.569-.554l-11.661,5.815H122.275a18.44,18.44,0,0,1,36.369,0ZM122,54.307V45.076h15.384a3.077,3.077,0,0,0,1.385-.338L149.074,39.6l4.585,4.585a3.178,3.178,0,0,0,2.185.892h3.077v9.231a18.412,18.412,0,0,1-2.492,9.231H140.459v6.154h10.184A18.446,18.446,0,0,1,122,54.307Zm24.615,23.815V82a6.154,6.154,0,0,1-12.307,0V78.122a24.067,24.067,0,0,0,12.307,0ZM115.752,92.244l13.23-5.877a12.264,12.264,0,0,0,22.953,0l13.23,5.877a15.464,15.464,0,0,1,8,8.215H107.752A15.464,15.464,0,0,1,115.752,92.244ZM75.845,63.537H70.952A21.968,21.968,0,0,0,71.968,60.4c.277,0,.523.062.8.062a12.587,12.587,0,0,0,3.077-.431Zm3.077-15.384a6.172,6.172,0,0,1-6.154,6.154V42a6.172,6.172,0,0,1,6.154,6.154ZM23.538,54.307a6.154,6.154,0,0,1,0-12.307Zm0-18.461a12.588,12.588,0,0,0-3.077.431v-.431a27.692,27.692,0,0,1,55.384,0v.431a12.587,12.587,0,0,0-3.077-.431c-.277,0-.523.062-.8.062a24.572,24.572,0,0,0-47.63,0C24.061,35.907,23.815,35.845,23.538,35.845Zm42.8,3.077H64.8l-5.231-5.261A3.132,3.132,0,0,0,56,33.107L44.338,38.922H29.969a18.44,18.44,0,0,1,36.369,0ZM29.692,54.307V45.076H45.076a3.077,3.077,0,0,0,1.385-.338L56.768,39.6l4.585,4.585a3.178,3.178,0,0,0,2.185.892h3.077v9.231a18.412,18.412,0,0,1-2.492,9.231H48.153v6.154H58.337A18.446,18.446,0,0,1,29.692,54.307ZM54.307,78.122V82A6.154,6.154,0,0,1,42,82V78.122a24.067,24.067,0,0,0,12.307,0ZM23.446,92.244l13.231-5.877a12.264,12.264,0,0,0,22.953,0L72.86,92.244a15.464,15.464,0,0,1,8,8.215H15.446a15.464,15.464,0,0,1,8-8.215Zm-12.215,63.6a3.077,3.077,0,0,1-3.077-3.077V109.69a3.077,3.077,0,0,1,3.077-3.077H85.075a3.077,3.077,0,0,1,3.077,3.077v43.076a3.077,3.077,0,0,1-3.077,3.077H60.46V140.459a3.077,3.077,0,0,0-3.077-3.077H38.922a3.077,3.077,0,0,0-3.077,3.077v15.384Zm43.076-12.307v24.615H42V143.536Zm12.307,36.922H29.692V174.3H66.614Zm49.23-9.231v9.231H72.768v-9.231a3.077,3.077,0,0,0-3.077-3.077H60.46V162H85.075a9.258,9.258,0,0,0,9.231-9.231A9.258,9.258,0,0,0,103.536,162h24.615v6.154h-9.231A3.077,3.077,0,0,0,115.844,171.227ZM158.92,174.3v6.154H122V174.3Zm-24.615-6.154V143.536h12.307v24.615Zm15.384-30.769H131.228a3.077,3.077,0,0,0-3.077,3.077v15.384H103.536a3.077,3.077,0,0,1-3.077-3.077V109.69a3.077,3.077,0,0,1,3.077-3.077h73.845a3.077,3.077,0,0,1,3.077,3.077v43.076a3.077,3.077,0,0,1-3.077,3.077H152.766V140.459A3.077,3.077,0,0,0,149.689,137.382Z" fill="#fff"/>
  </g>
</svg>
