<svg xmlns="http://www.w3.org/2000/svg" width="256.598" height="191.442" viewBox="0 0 256.598 191.442">
  <g id="iconfinder_nature_water_waterfall_landscape_cascade_fall_nature_jungle_5360419" transform="translate(-5.69 -24.355)">
    <path id="Path_75" data-name="Path 75" d="M262.271,90.206a3.123,3.123,0,0,0-3.123-3.123h-3.911V77.9a3.123,3.123,0,1,0-6.246,0v9.18h-9.377V71.771c3.646,1.365,7.871.912,12.571-1.354,5.381-2.593,8.764-7.378,9.782-13.839a23.424,23.424,0,0,0-7.808-21.612,18.954,18.954,0,0,0-17.811-3.879,23.437,23.437,0,0,0-25.721,1.8,18.59,18.59,0,0,0-7.909-7.043c-4.654-2.093-10.033-1.98-16.006.331-2.8-.949-9.584-2.655-16.09.29-4.851,2.2-8.44,6.417-10.682,12.556-2.661,1.038-7.193,3.864-9,11.342a15.889,15.889,0,0,0,4.08,15.013c.28.276.572.533.867.781A22.1,22.1,0,0,1,145.731,63.7a3.129,3.129,0,0,0-2.186-.341c-7.985,1.677-11.2-.244-13.485-2.57-2.618-2.665-2.881-5.138-2.456-9.049,1.236-11.364,9.674-11.846,10.606-11.864a3.123,3.123,0,0,0,2.9-1.964c2.155-5.4,9.682-6.006,9.743-6.012l.12-.01a20.177,20.177,0,0,1,5.035.078,3.124,3.124,0,0,0,.908-6.181,26.68,26.68,0,0,0-6.537-.115c-1,.078-10.082.974-14.2,8.124-5.422.849-13.462,5.125-14.783,17.268-.468,4.276-.562,9.245,4.21,14.1a16.331,16.331,0,0,0,11.561,5.052v15.5a3.123,3.123,0,1,0,6.246,0V69.742c.108-.019.212-.033.32-.052a29.13,29.13,0,0,0,9.6,2.66V85.718a3.123,3.123,0,1,0,6.246,0v-13.7a18.358,18.358,0,0,0,6.8-2.924c.382-.062.764-.134,1.144-.234.567-.145,1.141-.318,1.718-.508V80.06a3.123,3.123,0,1,0,6.246,0V70.387a27.2,27.2,0,0,0,7.212,2.935V87.083h-1.784a17.527,17.527,0,0,0-16.974,13.251,20.023,20.023,0,0,0-14.363-6.064H101.65a17.481,17.481,0,0,0-14.125-7.183H83.37V75.909a29.611,29.611,0,0,0,7.93.041v6.427a3.123,3.123,0,1,0,6.246,0V74.595c13.649-4.421,13.43-15.983,12.632-20.95a15.038,15.038,0,0,0-7.335-11.009q-.415-.223-.84-.412c-.275-6.2-3.138-15.129-12.9-16.236-1.5-.3-10.451-1.835-17.3,3.19a22.907,22.907,0,0,0-23.618.9A17.321,17.321,0,0,0,30.371,26.87c-2.433-.424-8.432-1-13.086,2.494-3.179,2.387-5.034,6.057-5.527,10.931-3.535,2.1-7.479,7.33-5.568,17.388a11.946,11.946,0,0,0,4.427,8.391c3.218,2.518,7.7,3.293,13.356,2.314a17.108,17.108,0,0,0,4.554,2.839V87.083H20.439v-12.6a3.123,3.123,0,1,0-6.246,0v12.6H9.3a3.123,3.123,0,1,0,0,6.246H87.524A11.264,11.264,0,0,1,98.775,104.58v93.189A16.909,16.909,0,0,0,87.733,209.55H9.3a3.123,3.123,0,1,0,0,6.246H109.809a3.123,3.123,0,1,0,0-6.246H94.33c1.222-2.822,4.216-6.481,11.556-6.774a3.147,3.147,0,0,0,2.987-2.859,12.233,12.233,0,0,1,4.175-7.63c2.942-2.371,7.23-3.23,12.746-2.551h.012a5.6,5.6,0,0,1,3.068,1.888,3.123,3.123,0,1,0,4.8-4,11.8,11.8,0,0,0-3.054-2.6c1.249-1.375,3.538-2.889,7.668-3.242a11.868,11.868,0,0,1,8.783,2.873,10.911,10.911,0,0,1,3.777,7.742q.017.366.017.748a3.127,3.127,0,0,0,3.9,3.026,28.257,28.257,0,0,1,11.068-.242c.051.012.1.025.156.035a14.737,14.737,0,0,1,5.971,2.628c3,2.3,4.785,5.985,5.344,10.958H145.138a3.123,3.123,0,1,0,0,6.246h114.01a3.123,3.123,0,0,0,0-6.246H183.581c-.646-7.082-3.279-12.433-7.853-15.934a19.96,19.96,0,0,0-6.058-3.123V104.577a11.264,11.264,0,0,1,11.25-11.251h78.228A3.123,3.123,0,0,0,262.271,90.206Zm-203.3-3.123h-24.2V72.666A21.846,21.846,0,0,0,44.99,70.574v8.315a3.123,3.123,0,0,0,6.246,0V75.2a13.737,13.737,0,0,0,5.713,1.244,14.8,14.8,0,0,0,2.025-.147ZM59.182,69.9a8.32,8.32,0,0,1-8.469-2.62,3.1,3.1,0,0,0-.48-.547,10.754,10.754,0,0,1-1.171-1.74,3.123,3.123,0,0,0-4.372-1.284c-4.977,2.921-8.917,3.134-11.779,2.452a3.092,3.092,0,0,0-.8-.222A10.757,10.757,0,0,1,27.4,63a3.123,3.123,0,0,0-3.086-1.045c-4.441,1-7.83.743-9.8-.755a5.743,5.743,0,0,1-2.1-3.961,3.058,3.058,0,0,0-.058-.54c-.918-4.656-.261-7.432.7-9.072a8.737,8.737,0,0,0,6.284,4.429A3.124,3.124,0,1,0,20.455,45.9c-2.31-.415-2.547-2.889-2.57-3.514.108-3.826,1.159-6.524,3.131-8.017,3.41-2.577,8.807-1.249,8.848-1.239a3.134,3.134,0,0,0,2.022-.148,11.087,11.087,0,0,1,13.43,3.09,3.123,3.123,0,0,0,4.468.547,16.788,16.788,0,0,1,20.436-1.085c.059.044.123.074.184.113s.086.067.135.1a10.892,10.892,0,0,1,4.147,6.31,3.123,3.123,0,1,0,6.038-1.6,18.06,18.06,0,0,0-3.7-7.178c4.855-2.447,10.83-1.181,10.893-1.171a3.3,3.3,0,0,0,.372.061c8.12.839,7.487,11.612,7.457,12.061a3.123,3.123,0,0,0,2.494,3.289,6.09,6.09,0,0,1,1.649.606,8.81,8.81,0,0,1,4.124,6.5c1.241,7.763-2.225,12.662-10.3,14.559-16.115,3.779-22.156-7.463-22.4-7.926a3.143,3.143,0,0,0-3.826-1.573,3.1,3.1,0,0,0-2.03,3.567C65.6,64.067,65.954,68.184,59.182,69.9ZM77.127,87.083H65.22V74.235A12.664,12.664,0,0,0,70.139,69.7a24.439,24.439,0,0,0,6.985,4.473Zm86.3,102.24a35.305,35.305,0,0,0-6.662.172,17.155,17.155,0,0,0-5.579-9.538,18.132,18.132,0,0,0-13.43-4.4c-8.215.7-11.94,4.926-13.533,7.763-6.246-.365-11.342,1.032-15.189,4.18a17.142,17.142,0,0,0-4.008,4.753V104.577a17.441,17.441,0,0,0-.482-4.06h45.044a13.855,13.855,0,0,1,13.839,13.839Zm34.766-102.24h-9.245V74.1a18.431,18.431,0,0,0,9.239-2.909Zm35.174,0H204.439V71.772a23.121,23.121,0,0,0,8.343,4.865,18.717,18.717,0,0,0,5.934.971c.06,0,.119,0,.18-.005v2.9a3.123,3.123,0,0,0,6.246,0V76.451a19.664,19.664,0,0,0,8.224-5.787Zm4.507-25.274a23.267,23.267,0,0,0,.632-10.711,3.123,3.123,0,1,0-6.125,1.225,17.353,17.353,0,0,1-.727,8.427c-.012.031-.016.064-.027.1s-.04.091-.054.138c-.087.3-.18.584-.278.867a13.742,13.742,0,0,1-9.748,9.2,3.156,3.156,0,0,0-.454.108,12.526,12.526,0,0,1-6.336-.448,16.275,16.275,0,0,1-9.971-8.853,3.123,3.123,0,0,0-2.655-2.055c-.1-.009-.193-.013-.288-.013a3.123,3.123,0,0,0-2.7,1.548c-.148.254-.3.5-.455.738a12.2,12.2,0,0,1-12.348,5.634,19.868,19.868,0,0,1-10.381-4.689,6.607,6.607,0,0,0-2.807-1.544h0a6.6,6.6,0,0,0-4.163.26,28.164,28.164,0,0,1-3.018,1.077,6.8,6.8,0,0,1-6.57-1.884,9.618,9.618,0,0,1-2.393-9.1c1.536-6.36,5.674-7.168,5.788-7.189a3.123,3.123,0,0,0,2.564-2.165c1.626-5.213,4.249-8.678,7.795-10.3,5.672-2.6,12.19.148,12.341.212A3.123,3.123,0,0,0,188,32.4c4.747-2.043,8.823-2.338,12.11-.881,4.756,2.108,6.589,7.323,6.6,7.36a3.129,3.129,0,0,0,3.3,2.128,3.321,3.321,0,0,0,2-1.026c10.4-10.536,21.734-3.2,22.2-2.889a3.123,3.123,0,0,0,2.838.344l.429-.156a12.831,12.831,0,0,1,12.682,2.477A17.147,17.147,0,0,1,255.8,55.6c-.7,4.468-2.773,7.473-6.324,9.184-3.265,1.574-5.957,1.909-8,1a7.67,7.67,0,0,1-3.6-3.975Z" transform="translate(0 0)" fill="#fff"/>
    <path id="Path_76" data-name="Path 76" d="M159.95,267.792a3.123,3.123,0,0,0,0-6.246h-2.163a3.123,3.123,0,1,0,0,6.246Z" transform="translate(-32.657 -51.996)" fill="#fff"/>
    <path id="Path_77" data-name="Path 77" d="M59.128,200.792l-9.693-8.722a22.75,22.75,0,0,0-15.242-5.848H9.432a3.123,3.123,0,0,0,0,6.246H34.194a16.513,16.513,0,0,1,11.064,4.245l14.961,13.465H23.855a3.123,3.123,0,0,0,0,6.246H76.706a16.557,16.557,0,0,1,8.913,2.6,3.124,3.124,0,1,0,3.357-5.269,22.8,22.8,0,0,0-12.268-3.576H69.557l-5.065-4.558a20.716,20.716,0,0,0,12.114-15.9,3.123,3.123,0,0,0-2.733-3.478,57.173,57.173,0,0,1-6.609-1.131c10.078-6.466,10.312-17.743,8.662-23.633a3.186,3.186,0,0,0-3.063-2.411,2.967,2.967,0,0,0-2.911,2.259c-.2.407-1.525,2.622-6.6,3.5a35.078,35.078,0,0,0-8.092,2.529c5.724-21.024-7.2-37.322-7.818-38.089a3.123,3.123,0,0,0-5.459,2.724,17.055,17.055,0,0,1-3.66,13.767,36.853,36.853,0,0,0-5.911,10.877,37.378,37.378,0,0,0-10.361-8.5,3.123,3.123,0,0,0-4.208,4.238,12.874,12.874,0,0,1,1.139,5.075,23.892,23.892,0,0,1-.962,7.9A49.863,49.863,0,0,0,16.18,179.2,3.123,3.123,0,0,0,19.3,182.3h.031a3.123,3.123,0,0,0,3.093-3.154,43.637,43.637,0,0,1,1.612-12.124,31.217,31.217,0,0,0,1.223-8.891,18.172,18.172,0,0,1,5.277,7.821,54.334,54.334,0,0,1,.625,6.667,3.123,3.123,0,1,0,6.246,0,59.2,59.2,0,0,0-.666-7.437,32.831,32.831,0,0,1,6.465-15.52,23.892,23.892,0,0,0,4.194-7.833,36.721,36.721,0,0,1-.923,31.058,3.123,3.123,0,0,0,4.632,3.92c.064-.046,6.446-4.641,13.306-5.825a20.1,20.1,0,0,0,5.934-1.918c-.422,4.515-2.8,10.406-11.634,13.128a3.123,3.123,0,0,0-1.624,4.8c.745,1.042,3.4,3.441,12.483,4.953a13.957,13.957,0,0,1-10.45,8.849Z" transform="translate(-0.136 -22.743)" fill="#fff"/>
    <path id="Path_78" data-name="Path 78" d="M308.215,202.72a3.123,3.123,0,0,0-3.123-3.123h-6.233a30.261,30.261,0,0,0,.673-13.273A3.123,3.123,0,0,0,294.7,184.4a16.49,16.49,0,0,1-5.094,2.41,29.378,29.378,0,0,0,2.288-10.758,3.123,3.123,0,0,0-3.5-3.1,26.952,26.952,0,0,0-11.467,4.317c.764-14.88-8.786-28.14-9.282-28.818a3.123,3.123,0,0,0-5.5,2.776c.127.417,3.029,10.326-5.021,20.217a30.141,30.141,0,0,0-7.027,15.85,20.992,20.992,0,0,1-4.434-11.316,3.123,3.123,0,0,0-5.9-1.355c-7.939,15.46-5.506,26.163-2.067,32.422a3.123,3.123,0,0,0,5.473-3.007c-2.848-5.184-3.261-11.288-1.249-18.217a26.809,26.809,0,0,0,10.1,11.487,3.131,3.131,0,0,0,4.629-3.645c-.112-.342-2.665-8.48,5.309-18.279a30.82,30.82,0,0,0,6.232-12.427c2.349,6.286,3.881,14.437.692,22a3.123,3.123,0,0,0,5.4,3.054,25.465,25.465,0,0,1,10.906-7.925c-.538,2.708-1.644,5.893-3.761,7.692a3.123,3.123,0,0,0,1.234,5.4,18.853,18.853,0,0,0,11.063-1.186,22.438,22.438,0,0,1-1.46,7.609h-5.706a17.013,17.013,0,0,0-12.253,5.244l-5.159,5.4H244.566a20.066,20.066,0,0,0-15.343,7.116,3.123,3.123,0,0,0,4.768,4.035,13.828,13.828,0,0,1,10.575-4.9h42.665a3.123,3.123,0,1,0,0-6.246h-9.448l1.042-1.093a10.744,10.744,0,0,1,7.735-3.31h18.531A3.123,3.123,0,0,0,308.215,202.72Z" transform="translate(-48.839 -26.923)" fill="#fff"/>
    <path id="Path_79" data-name="Path 79" d="M146.679,147.169a3.123,3.123,0,0,0-3.123,3.123v48.355a3.123,3.123,0,1,0,6.246,0V150.292A3.123,3.123,0,0,0,146.679,147.169Z" transform="translate(-30.222 -26.923)" fill="#fff"/>
    <path id="Path_80" data-name="Path 80" d="M167.635,191.413a3.123,3.123,0,0,0-3.123,3.123v8.687a3.123,3.123,0,1,0,6.246,0v-8.687A3.123,3.123,0,0,0,167.635,191.413Z" transform="translate(-34.816 -36.621)" fill="#fff"/>
    <path id="Path_81" data-name="Path 81" d="M167.635,173.178a3.123,3.123,0,0,0-3.123,3.123v1.364a3.123,3.123,0,0,0,6.246,0V176.3A3.123,3.123,0,0,0,167.635,173.178Z" transform="translate(-34.816 -32.624)" fill="#fff"/>
    <path id="Path_82" data-name="Path 82" d="M167.635,133.392a3.123,3.123,0,0,0-3.123,3.123v18.967a3.123,3.123,0,1,0,6.246,0V136.515A3.123,3.123,0,0,0,167.635,133.392Z" transform="translate(-34.816 -23.902)" fill="#fff"/>
    <path id="Path_83" data-name="Path 83" d="M188.252,200.572a3.123,3.123,0,0,0-3.123,3.123v1.536a3.123,3.123,0,1,0,6.246,0V203.7A3.123,3.123,0,0,0,188.252,200.572Z" transform="translate(-39.335 -38.629)" fill="#fff"/>
    <path id="Path_84" data-name="Path 84" d="M188.252,141.842a3.123,3.123,0,0,0-3.123,3.123v31.007a3.123,3.123,0,1,0,6.246,0V144.965A3.123,3.123,0,0,0,188.252,141.842Z" transform="translate(-39.335 -25.755)" fill="#fff"/>
    <path id="Path_93" data-name="Path 93" d="M322.4,227.953a3.123,3.123,0,0,0,0,6.246h1.535a3.123,3.123,0,1,0,0-6.246Z" transform="translate(-68.742 -44.631)" fill="#fff"/>
  </g>
</svg>
