<svg width="366.895" height="146.895" xmlns="http://www.w3.org/2000/svg">

 <g>
  <title>Layer 1</title>
  <path stroke="null" fill="#fff" transform="rotate(135 375.8949890136719,104.98500061035156) " d="m605.97599,296.463a3.419,3.419 0 0 1 0.221,0.334a30.292,30.292 0 0 1 30.11,30.3c0,0.776 -0.056,1.538 -0.113,2.305c0,0.026 0.052,0.03 0.074,0.056l15.95,19.4a4.333,4.333 0 0 1 -6.5,5.633l-11.578,17.861c-0.048,0.069 -0.13,0.1 -0.178,0.173a2.577,2.577 0 0 1 -0.152,0.273a4.138,4.138 0 0 1 -0.676,0.529a2.8,2.8 0 0 1 -1.824,0.867c-0.134,0.013 -0.243,0.1 -0.377,0.113a118.8,118.8 0 0 1 -42.684,-2.873l-0.113,0l-0.117,-0.043c-2,-0.563 -3.934,-1.17 -5.759,-1.859c-8.111,-3.063 -15.88,-6.846 -23.4,-10.507a246.082,246.082 0 0 0 -25.309,-11.162c-11.768,-4.16 -42.948,-18.7 -54.682,-27.644a4.333,4.333 0 0 1 4.307,-7.44a136.277,136.277 0 0 0 37.805,10.958l9.069,-0.03a356.605,356.605 0 0 0 -48.261,-42.61l-28.42,4.155a4.3,4.3 0 0 1 -4.155,-1.733a77.3,77.3 0 0 1 -10.319,-26.36a111.845,111.845 0 0 0 -3.9,-13.142a122.554,122.554 0 0 0 -15.77,-29.954c-0.048,-0.043 -0.113,-0.061 -0.16,-0.108l-20.114,-20.131a4.333,4.333 0 1 1 6.127,-6.127l19.6,19.607a4.1,4.1 0 0 1 0.841,0.663c0.03,0.035 0.052,0.078 0.082,0.113l0.026,0a390.87,390.87 0 0 0 43.596,51.055a4.335,4.335 0 1 1 -5.984,6.274c-6.036,-5.754 -12.132,-12.193 -18.454,-19.412c0.867,2.881 1.7,5.863 2.509,9.013a81.123,81.123 0 0 0 7.526,21.275c3.41,-0.511 10.447,-1.538 24.785,-3.635a55.089,55.089 0 0 1 13.571,-27.432a54.5,54.5 0 0 1 12.384,-9.931c-1.144,-2.01 -2.236,-4.03 -3.211,-6.066a4.333,4.333 0 0 1 7.8,-3.739c0.966,2.023 2.067,4.03 3.224,6.032a50.005,50.005 0 0 1 4.818,-1.759a4.263,4.263 0 0 1 1.2,-0.173a4.333,4.333 0 0 1 1.2,8.493c-0.867,0.247 -1.642,0.611 -2.47,0.9a127.961,127.961 0 0 0 19.958,21.882a339.313,339.313 0 0 0 41.787,29.876a2.183,2.183 0 0 0 1.183,0.9a4.333,4.333 0 0 1 1.3,5.988a114.742,114.742 0 0 1 -32.71,34.846c10.4,11.266 25.712,25.456 40.938,30.643a101.968,101.968 0 0 0 28.836,3.2l-1.915,-1.625a4.334,4.334 0 0 1 5.611,-6.608l6.4,5.429l10.369,-15.971l-6.361,-7.778a30.331,30.331 0 1 1 -37.7,-41.2l-89.974,-89.974a30.331,30.331 0 1 1 -50,-31.631c0.325,-0.325 0.672,-0.6 1.005,-0.91l-0.607,-0.273l-14.446,9.649l0,2l1.413,1.417a4.3,4.3 0 0 1 -5.044,6.85l-4.121,5.767a4.333,4.333 0 1 1 -7.048,-5.037l6.136,-8.566l0,-4.764c0,-0.1 0.03,-0.2 0.039,-0.308l-33.8,-33.8a4.333,4.333 0 1 1 6.127,-6.127l33.8,33.8l14.158,-9.409a4.333,4.333 0 0 1 2.4,-0.728a4.277,4.277 0 0 1 1.79,0.39l7.891,3.582a30.422,30.422 0 0 1 11.773,-2.379l0.338,0l-30.821,-30.821a4.333,4.333 0 1 1 6.127,-6.127l45.79,45.817a30.114,30.114 0 0 1 8.883,21.37a4.129,4.129 0 0 1 0.693,0.459l97.657,97.659zm-85.2,35.929c-0.173,-0.03 -0.308,0 -0.459,-0.026l-1.595,-0.178c7.214,3.332 13.736,6.066 17.726,7.492c4.567,1.616 9.013,3.466 13.354,5.434c-4.333,-4.311 -8.3,-8.666 -11.82,-12.778l-17.206,0.056zm51.97,-35.964a327.847,327.847 0 0 1 -40.37,-29.074a135.037,135.037 0 0 1 -22.207,-24.728a45.262,45.262 0 0 0 -22.159,32.315a372.773,372.773 0 0 1 55.167,50.15c0.022,0.022 0.03,0.052 0.052,0.078l0.052,0.039l0.594,0.7a102.206,102.206 0 0 0 28.871,-29.477l0,-0.003zm17.908,45.995a21.6,21.6 0 1 0 -6.371,-15.319a21.665,21.665 0 0 0 6.371,15.319zm-98.042,-159.338a21.665,21.665 0 1 0 6.339,15.334a21.665,21.665 0 0 0 -6.339,-15.334zm125.622,131.759a17.354,17.354 0 0 1 0,24.512a17.739,17.739 0 0 1 -24.507,0a17.331,17.331 0 1 1 24.508,-24.512l-0.001,0zm-18.381,6.127a8.666,8.666 0 1 0 12.254,0a8.666,8.666 0 0 0 -12.254,0zm-134.811,-110.296a17.332,17.332 0 1 1 24.507,0a17.332,17.332 0 0 1 -24.507,0zm18.38,-18.385a8.87,8.87 0 0 0 -12.254,0a8.666,8.666 0 1 0 12.254,0zm-92.154,-12.284a4.333,4.333 0 0 0 0,-6.131l-4.6,-4.593a4.335,4.335 0 0 0 -6.14,6.123l4.606,4.606a4.333,4.333 0 0 0 6.131,0l0.003,-0.005zm42.527,-61.853a4.333,4.333 0 0 0 0,-6.127l-5.77,-5.771a4.333,4.333 0 1 0 -6.13,6.13l5.772,5.771a4.333,4.333 0 0 0 6.127,0l0.001,-0.003zm-45.087,14.047a4.333,4.333 0 0 0 0,-6.127l-5.413,-5.416a4.333,4.333 0 1 0 -6.131,6.128l5.417,5.416a4.333,4.333 0 0 0 6.127,0l0,-0.001zm17.518,117.177a4.333,4.333 0 1 0 -4.331,-4.333a4.333,4.333 0 0 0 4.331,4.333zm108.324,116.99a4.333,4.333 0 1 0 4.333,-4.333a4.333,4.333 0 0 0 -4.333,4.333zm-17.332,4.333a4.333,4.333 0 1 0 4.333,-4.333a4.333,4.333 0 0 0 -4.333,4.333z" id="Path_94"/>
 </g>
</svg>