<svg xmlns="http://www.w3.org/2000/svg" width="939.771" height="1004.047" viewBox="0 0 939.771 1004.047">
  <g id="Pencil_pen_3" data-name="Pencil pen 3" transform="translate(-41.5 -31.217)" opacity="0.1">
    <path id="Path_205" data-name="Path 205" d="M263.915,367.719h.2c35.132,0,62.029-11.242,79.968-33.419,14.536-17.939,36.076-61.283,17.171-150.078a34.495,34.495,0,0,0-47.933-23.933,11.464,11.464,0,0,0-1.186.527A24.153,24.153,0,0,1,277.287,139.3V44.4a13.174,13.174,0,0,0-19.322-11.659c-3.425,1.8-84.1,45.5-103.77,164.679-10.3,62.2-3.14,108.315,21.233,137.035C203.62,367.609,245.625,367.719,263.915,367.719ZM180.192,201.612c11.879-71.91,47.977-112.641,70.746-131.744V139.21A50.5,50.5,0,0,0,322.8,184.837a10.251,10.251,0,0,0,1.1-.4,8.146,8.146,0,0,1,11.571,5.445c16.622,78.014-.329,113.651-11.879,127.945-12.889,15.919-32.343,23.648-59.68,23.648h-.176c-15.634,0-47.933,0-68.243-24.043-19.125-22.66-24.285-61.59-15.3-115.825Z" transform="translate(129.296)" fill="#8585a8"/>
    <path id="Path_206" data-name="Path 206" d="M915.4,756.668H683.574L674.045,468H698.2a45.473,45.473,0,0,0,45.5-45.473v-5.841a45.473,45.473,0,0,0-45.5-45.473H678.3l60.426-181.3a39.523,39.523,0,0,0-5.907-36.251L656.589,52.235A39.721,39.721,0,0,0,625.014,36.47h0a39.786,39.786,0,0,0-31.6,15.853L517.6,153.7a39.523,39.523,0,0,0-5.863,36.1l60.185,181.389H551.545a45.43,45.43,0,0,0-45.473,45.473V422.5A45.43,45.43,0,0,0,551.545,468h24.987L566.608,756.69H445.4l21.957-372.5A13.174,13.174,0,0,0,449.2,371.23l-10.627,4.391a143.205,143.205,0,0,1-108.93,0l-10.979-4.391a13.174,13.174,0,0,0-18.115,12.977l21.957,372.5H107.372A65.872,65.872,0,0,0,41.5,822.584V963.11a65.872,65.872,0,0,0,65.872,65.872H915.4a65.872,65.872,0,0,0,65.872-65.872V822.584A65.872,65.872,0,0,0,915.4,756.668ZM625.168,221.394a13.174,13.174,0,1,1-13.174,13.174,13.174,13.174,0,0,1,13.174-13.174ZM538.7,169.377l73.052-97.754V197.351a39.523,39.523,0,1,0,26.349-.176V71.492l73.754,97.885a13.175,13.175,0,0,1,1.976,12.1L650.9,370.308l-51.27.7L536.746,181.454a13.174,13.174,0,0,1,1.954-12.077Zm-.681,266.561a18.927,18.927,0,0,1-5.6-13.526v-5.841a19.125,19.125,0,0,1,19.125-19.125h146.74a19.125,19.125,0,0,1,19.147,19.125v5.841a19.125,19.125,0,0,1-19.147,19.125H551.545a18.971,18.971,0,0,1-13.526-5.511ZM647.7,468l15.172,460.29a37.92,37.92,0,1,1-75.8,0L602.9,468ZM439.8,403.244l-31.86,541.532a24.153,24.153,0,0,1-48.086,0L328.042,403.222a169.071,169.071,0,0,0,111.762.022Zm515.117,559.91a39.523,39.523,0,0,1-39.523,39.523H107.372a39.523,39.523,0,0,1-39.523-39.523V822.628A39.523,39.523,0,0,1,107.372,783.1h39.523v57.089a13.174,13.174,0,1,0,26.349,0V783.1h46.835V910.457a13.174,13.174,0,1,0,26.349,0V783.1h40.994v57.089a13.174,13.174,0,1,0,26.349,0V783.1h10.166l9.617,163.318a50.5,50.5,0,0,0,100.7,0l9.6-163.318H565.708l-4.918,144.259a64.269,64.269,0,1,0,128.472,0L684.5,782.995h28.259V910.347a13.174,13.174,0,0,0,26.349,0V782.995H780.1v57.089a13.174,13.174,0,1,0,26.349,0V782.995h46.835V910.347a13.174,13.174,0,0,0,26.349,0V782.995H915.4a39.523,39.523,0,0,1,39.523,39.523Z" transform="translate(0 6.282)" fill="#8585a8"/>
  </g>
</svg>
