<svg xmlns="http://www.w3.org/2000/svg" width="1306.14" height="1162.113" viewBox="0 0 1306.14 1162.113">
  <path id="iconfinder_react_4691292" d="M653.07,465.944a116.41,116.41,0,1,0,116.41,116.41A116.41,116.41,0,0,0,653.07,465.944ZM326.97,813.921l-25.687-6.531C109.825,759.009,0,676.886,0,582.136S109.825,405.263,301.283,356.881l25.687-6.476,7.238,25.47A1280.536,1280.536,0,0,0,408.386,570.6l5.5,11.592-5.5,11.592a1268.425,1268.425,0,0,0-74.178,194.724l-7.238,25.415ZM289.364,416.365C143.839,457.236,54.531,519.768,54.531,582.136c0,62.314,89.307,124.845,234.833,165.771a1357.841,1357.841,0,0,1,64.327-165.771,1347.08,1347.08,0,0,1-64.327-165.77ZM979.169,813.921,971.931,788.4A1271.149,1271.149,0,0,0,897.7,593.728l-5.5-11.592,5.5-11.592A1274.577,1274.577,0,0,0,971.931,375.82l7.238-25.47,25.742,6.476c191.4,48.382,301.228,130.505,301.228,225.309s-109.825,176.873-301.228,225.255ZM952.448,582.136c26.123,56.545,47.729,112.11,64.327,165.771,145.58-40.926,234.833-103.457,234.833-165.771,0-62.368-89.307-124.845-234.833-165.771a1349.034,1349.034,0,0,1-64.327,165.771ZM288.983,416.093l-7.238-25.415c-53.824-189.717-37.5-325.664,44.79-373.12,80.708-46.586,210.289,8.435,346.073,147.811l18.5,18.993-18.5,18.993A1281.768,1281.768,0,0,0,540.8,364.827l-7.347,10.5-12.789,1.088a1287.467,1287.467,0,0,0-205.989,33.2l-25.688,6.476ZM392.168,55.272c-14.585,0-27.483,3.157-38.368,9.415-54.1,31.184-63.674,139.594-26.395,285.881A1367.174,1367.174,0,0,1,503.354,323.3,1352.239,1352.239,0,0,1,615.029,184.852c-84.9-82.668-165.282-129.58-222.861-129.58ZM914.026,1163.423h0c-77.552,0-177.145-58.4-280.493-164.519l-18.5-18.994,18.5-18.993A1280.569,1280.569,0,0,0,765.289,799.39l7.347-10.5,12.735-1.088a1285.994,1285.994,0,0,0,206.1-33.143l25.687-6.476,7.293,25.47c53.715,189.608,37.443,325.61-44.844,373.012a129.53,129.53,0,0,1-65.579,16.762Zm-222.914-184c84.9,82.668,165.281,129.58,222.86,129.58h.054c14.531,0,27.483-3.157,38.313-9.415,54.1-31.184,63.729-139.648,26.4-285.936a1361.628,1361.628,0,0,1-176,27.265A1342.823,1342.823,0,0,1,691.111,979.42Zm326.045-563.327-25.687-6.476a1277.765,1277.765,0,0,0-206.1-33.2l-12.735-1.088-7.347-10.5A1274.265,1274.265,0,0,0,633.532,203.356l-18.5-18.994,18.5-18.993C769.262,26.047,898.787-28.974,979.6,17.557c82.287,47.456,98.614,183.4,44.844,373.066l-7.293,25.47ZM802.732,323.3c62.151,5.66,121.2,14.857,176,27.266,37.334-146.288,27.7-254.7-26.4-285.881C898.57,33.612,797.507,81.231,691.111,184.852A1352.355,1352.355,0,0,1,802.732,323.3Zm-410.563,840.12a129.526,129.526,0,0,1-65.633-16.762c-82.287-47.4-98.614-183.349-44.79-373.012l7.184-25.47,25.687,6.476c62.858,15.837,132.192,26.994,205.989,33.143l12.789,1.089,7.293,10.5A1284.148,1284.148,0,0,0,672.5,960.916L691,979.91,672.5,998.9c-103.294,106.124-202.887,164.519-280.33,164.519ZM327.406,813.649C290.072,959.937,299.7,1068.4,353.8,1099.585c53.715,30.64,154.723-16.6,261.228-120.165a1360.471,1360.471,0,0,1-111.675-138.5,1359.285,1359.285,0,0,1-175.948-27.266ZM653.07,847.827c-44.79,0-90.831-1.959-136.927-5.769l-12.789-1.089-7.347-10.5q-39.11-56.2-73.47-115.484Q388.309,655.7,359.079,593.728l-5.442-11.592,5.442-11.592q29.2-61.918,63.457-121.253c22.531-38.966,47.293-77.824,73.47-115.484l7.347-10.5,12.789-1.088a1620.978,1620.978,0,0,1,273.909,0l12.735,1.088,7.293,10.5A1632.972,1632.972,0,0,1,947.06,570.544l5.5,11.592-5.5,11.592A1610.929,1610.929,0,0,1,810.079,830.466l-7.293,10.5-12.735,1.088c-46.1,3.81-92.192,5.769-136.981,5.769ZM533.5,788.833a1580.7,1580.7,0,0,0,239.187,0A1578.581,1578.581,0,0,0,892.2,582.136a1555.67,1555.67,0,0,0-119.566-206.7,1579.954,1579.954,0,0,0-239.132,0,1549.784,1549.784,0,0,0-119.567,206.7A1584.456,1584.456,0,0,0,533.5,788.833Z" transform="translate(0 -1.324)" fill="#434263" opacity="0.04"/>
</svg>
