<svg xmlns="http://www.w3.org/2000/svg" width="696.573" height="421.783" viewBox="0 0 696.573 421.783">
  <g id="book" transform="translate(0 6)">
    <g id="Сгруппировать_89" data-name="Сгруппировать 89" transform="translate(0 0)">
      <g id="Сгруппировать_88" data-name="Сгруппировать 88">
        <path id="Контур_98" data-name="Контур 98" d="M121.66,287.491H549.577a62.429,62.429,0,0,0,62.3-62.3h0a62.429,62.429,0,0,0-62.3-62.3H122.121a2.775,2.775,0,0,0-2.153,4.461c12.152,14.151,43.376,59.835-.615,115.67A2.811,2.811,0,0,0,121.66,287.491Z" transform="translate(-52.505 -162.9)" fill="#181748" opacity="0.33"/>
        <path id="Контур_99" data-name="Контур 99" d="M164.76,368.491H592.677a62.429,62.429,0,0,0,62.3-62.3h0a62.429,62.429,0,0,0-62.3-62.3H165.221a2.775,2.775,0,0,0-2.153,4.461c12.152,14.151,43.376,59.835-.615,115.67A2.811,2.811,0,0,0,164.76,368.491Z" transform="translate(-161.9 -101.216)" fill="#434263"/>
        <path id="Контур_100" data-name="Контур 100" d="M121.66,449.391H549.577a62.429,62.429,0,0,0,62.3-62.3h0a62.429,62.429,0,0,0-62.3-62.3H122.121a2.775,2.775,0,0,0-2.153,4.461c12.152,14.151,43.376,59.835-.615,115.67A2.811,2.811,0,0,0,121.66,449.391Z" transform="translate(-52.505 -39.608)" fill="#8585a8"/>
        <path id="Контур_101" data-name="Контур 101" d="M87.16,287.491H515.077a62.429,62.429,0,0,0,62.3-62.3h0a62.429,62.429,0,0,0-62.3-62.3H87.621a2.775,2.775,0,0,0-2.153,4.461c12.152,14.151,43.376,59.835-.615,115.67A2.811,2.811,0,0,0,87.16,287.491Z" transform="translate(35.062 -162.9)" fill="none" stroke="#000" stroke-miterlimit="10" stroke-width="12"/>
        <path id="Контур_102" data-name="Контур 102" d="M130.26,368.491H558.177a62.429,62.429,0,0,0,62.3-62.3h0a62.429,62.429,0,0,0-62.3-62.3H130.721a2.775,2.775,0,0,0-2.153,4.461c12.152,14.151,43.376,59.835-.615,115.67A2.811,2.811,0,0,0,130.26,368.491Z" transform="translate(-74.333 -101.216)" fill="none" stroke="#000" stroke-miterlimit="10" stroke-width="12"/>
        <path id="Контур_103" data-name="Контур 103" d="M87.16,449.391H515.077a62.429,62.429,0,0,0,62.3-62.3h0a62.429,62.429,0,0,0-62.3-62.3H87.621a2.775,2.775,0,0,0-2.153,4.461c12.152,14.151,43.376,59.835-.615,115.67A2.811,2.811,0,0,0,87.16,449.391Z" transform="translate(35.062 -39.608)" fill="none" stroke="#000" stroke-miterlimit="10" stroke-width="12"/>
        <path id="Контур_104" data-name="Контур 104" d="M301.781,197.5H201.8V331.167l49.99-27.687,49.99,27.687Z" transform="translate(129.92 -144.279)" fill="#fff"/>
        <path id="Контур_105" data-name="Контур 105" d="M289.481,197.5H189.5V331.167l49.99-27.687,49.99,27.687Z" transform="translate(161.139 -144.279)" fill="none" stroke="#000" stroke-miterlimit="10" stroke-width="12"/>
      </g>
      <line id="Линия_1" data-name="Линия 1" x2="21.073" transform="translate(675.5 409.783)" fill="none" stroke="#000" stroke-miterlimit="10" stroke-width="12"/>
      <line id="Линия_2" data-name="Линия 2" x1="104.134" transform="translate(550.139 409.783)" fill="none" stroke="#000" stroke-miterlimit="10" stroke-width="12"/>
      <line id="Линия_3" data-name="Линия 3" x1="29.071" transform="translate(283.729 347.641)" fill="none" stroke="#000" stroke-miterlimit="10" stroke-width="12"/>
      <line id="Линия_4" data-name="Линия 4" x1="149.664" transform="translate(171.75 53.221)" fill="none" stroke="#000" stroke-miterlimit="10" stroke-width="12"/>
      <line id="Линия_5" data-name="Линия 5" x1="29.225" transform="translate(493.073 53.221)" fill="none" stroke="#000" stroke-miterlimit="10" stroke-width="12"/>
    </g>
    <line id="Линия_6" data-name="Линия 6" x2="54.913" transform="translate(345.717 347.641)" fill="none" stroke="#000" stroke-miterlimit="10" stroke-width="12"/>
  </g>
</svg>
