<svg xmlns="http://www.w3.org/2000/svg" width="1330.063" height="794.456" viewBox="0 0 1330.063 794.456">
  <g id="book" transform="translate(0 6)" opacity="0.07">
    <g id="Сгруппировать_89" data-name="Сгруппировать 89" transform="translate(0 0)">
      <g id="Сгруппировать_88" data-name="Сгруппировать 88">
        <path id="Контур_98" data-name="Контур 98" d="M124.26,400.8H941.343c65.5,0,118.95-53.454,118.95-118.95h0c0-65.5-53.454-118.95-118.95-118.95h-816.2a5.3,5.3,0,0,0-4.112,8.517c23.2,27.021,82.824,114.251-1.175,220.865A5.367,5.367,0,0,0,124.26,400.8Z" transform="translate(7.786 -162.9)" fill="#181748" opacity="0.33"/>
        <path id="Контур_99" data-name="Контур 99" d="M167.36,481.8H984.443c65.5,0,118.95-53.454,118.95-118.95h0c0-65.5-53.454-118.95-118.95-118.95h-816.2a5.3,5.3,0,0,0-4.112,8.517c23.2,27.021,82.824,114.251-1.175,220.865A5.367,5.367,0,0,0,167.36,481.8Z" transform="translate(-161.9 28.546)" fill="#434263"/>
        <path id="Контур_100" data-name="Контур 100" d="M124.26,562.7H941.343c65.5,0,118.95-53.454,118.95-118.95h0c0-65.5-53.454-118.95-118.95-118.95h-816.2a5.3,5.3,0,0,0-4.112,8.517c23.2,27.021,82.824,114.251-1.175,220.865A5.367,5.367,0,0,0,124.26,562.7Z" transform="translate(7.786 219.756)" fill="#8585a8"/>
        <path id="Контур_101" data-name="Контур 101" d="M89.76,400.8H906.843c65.5,0,118.95-53.454,118.95-118.95h0c0-65.5-53.454-118.95-118.95-118.95H90.641a5.3,5.3,0,0,0-4.112,8.517c23.2,27.021,82.824,114.251-1.175,220.865A5.367,5.367,0,0,0,89.76,400.8Z" transform="translate(143.614 -162.9)" fill="none" stroke="#000" stroke-miterlimit="10" stroke-width="12"/>
        <path id="Контур_102" data-name="Контур 102" d="M132.86,481.8H949.943c65.5,0,118.95-53.454,118.95-118.95h0c0-65.5-53.454-118.95-118.95-118.95h-816.2a5.3,5.3,0,0,0-4.112,8.517c23.2,27.021,82.824,114.251-1.175,220.865A5.367,5.367,0,0,0,132.86,481.8Z" transform="translate(-26.072 28.546)" fill="none" stroke="#000" stroke-miterlimit="10" stroke-width="12"/>
        <path id="Контур_103" data-name="Контур 103" d="M89.76,562.7H906.843c65.5,0,118.95-53.454,118.95-118.95h0c0-65.5-53.454-118.95-118.95-118.95H90.641a5.3,5.3,0,0,0-4.112,8.517c23.2,27.021,82.824,114.251-1.175,220.865A5.367,5.367,0,0,0,89.76,562.7Z" transform="translate(143.614 219.756)" fill="none" stroke="#000" stroke-miterlimit="10" stroke-width="12"/>
        <path id="Контур_104" data-name="Контур 104" d="M392.707,197.5H201.8V452.728l95.454-52.867,95.454,52.867Z" transform="translate(431.598 -95.879)" fill="#fff"/>
        <path id="Контур_105" data-name="Контур 105" d="M380.407,197.5H189.5V452.728l95.454-52.867,95.454,52.867Z" transform="translate(480.024 -95.879)" fill="none" stroke="#000" stroke-miterlimit="10" stroke-width="12"/>
      </g>
      <line id="Линия_1" data-name="Линия 1" x2="40.237" transform="translate(1289.825 782.456)" fill="none" stroke="#000" stroke-miterlimit="10" stroke-width="12"/>
      <line id="Линия_2" data-name="Линия 2" x1="198.837" transform="translate(1050.457 782.456)" fill="none" stroke="#000" stroke-miterlimit="10" stroke-width="12"/>
      <line id="Линия_3" data-name="Линия 3" x1="55.51" transform="translate(541.763 663.8)" fill="none" stroke="#000" stroke-miterlimit="10" stroke-width="12"/>
      <line id="Линия_4" data-name="Линия 4" x1="285.773" transform="translate(327.947 101.621)" fill="none" stroke="#000" stroke-miterlimit="10" stroke-width="12"/>
      <line id="Линия_5" data-name="Линия 5" x1="55.804" transform="translate(941.493 101.621)" fill="none" stroke="#000" stroke-miterlimit="10" stroke-width="12"/>
    </g>
    <line id="Линия_6" data-name="Линия 6" x2="104.852" transform="translate(660.125 663.8)" fill="none" stroke="#000" stroke-miterlimit="10" stroke-width="12"/>
  </g>
</svg>
